<?xml version="1.0" ?><svg data-name="Your Icons" id="Your_Icons" viewBox="0 0 96 96" xmlns="http://www.w3.org/2000/svg"><defs><style>.cls-1{fill:#336dff;}</style></defs><path class="cls-1" d="M48,63A12,12,0,0,1,36,51V38a12,12,0,0,1,24,0V51A12,12,0,0,1,48,63Zm0-33a8,8,0,0,0-8,8V51a8,8,0,0,0,16,0V38A8,8,0,0,0,48,30Z"/><path class="cls-1" d="M48,90A42,42,0,1,1,90,48,42,42,0,0,1,48,90Zm0-80A38,38,0,1,0,86,48,38,38,0,0,0,48,10Z"/><path class="cls-1" d="M13.35,70a2,2,0,0,1-1-.27A2,2,0,0,1,11.62,67,42.29,42.29,0,0,1,37.5,47.32a2,2,0,1,1,1,3.88A38.28,38.28,0,0,0,15.08,69,2,2,0,0,1,13.35,70Z"/><path class="cls-1" d="M82.65,70a2,2,0,0,1-1.73-1A38.28,38.28,0,0,0,57.5,51.2a2,2,0,0,1,1-3.88A42.29,42.29,0,0,1,84.38,67a2,2,0,0,1-.73,2.73A2,2,0,0,1,82.65,70Z"/></svg>