<svg xmlns="http://www.w3.org/2000/svg" viewBox="0 0 340 340"><path d="M59 100a163 163 0 0 1-44 36 10 10 0 0 0-5 8v32l2 9 29-21Z" style="fill:#346b99"/><path d="M10 176s19-13 36-51c0 0 24-65 91-79 0 0 30-9 66 0a88 88 0 0 1 46 29 65 65 0 0 1 12 20 4 4 0 0 1-6 5c-6-3-13-4-22 0l-54 21 1 145-170 13Z" style="fill:#eefaff"/><path d="M127 212a17 17 0 0 0-19-5 16 16 0 0 0-7 5c-28 32-65 46-91 49v11l2 7 115-9Zm3-75s-28 3-44 26a8 8 0 0 0 7 13h41Z" style="fill:#96c1d6"/><path d="M233 100s-32 12-45 55a61 61 0 0 0-1 34c5 16 17 34 48 41l-55 36s-77-9-63-110c2-11 6-29 12-39 17-19 49-18 62-15 3 1 18-10 22-11 5-2 10-1 14 3 2 2 5 3 6 6Z" style="fill:#6295d3"/><path d="M204 104c8-5 14-3 19 1a56 56 0 0 1 10-5 15 15 0 0 0-5-7 17 17 0 0 0-16-4 43 43 0 0 0-9 5 16 16 0 0 1-22-5l-1-1a2 2 0 0 0-2 0l-6 5a18 18 0 0 1-11 4h-3a24 24 0 0 0-15 4 58 58 0 0 0-14 16c6-4 14-8 22-8 0 0 13 6 23-5 0 0 12 12 30 0Zm-88 75c0 15-3 33 0 43l64 44 55-36a84 84 0 0 1-18-6c-8 9-29 9-29 9-54-16-43-69-43-69l-29 15Z" style="fill:#346b99"/><path d="M77 180s19-33 60-28a10 10 0 0 1 8 6c1 3 1 9-10 15 0 0 7 14-11 21 0 0 5 6 1 16 0 0-7 11-16 17l-10-13Z" style="fill:#eefaff"/><path d="M108 229c10-7 14-13 17-19a17 17 0 0 0-17-3 19 19 0 0 0-7 5 20 20 0 0 0-2 2Z" style="fill:#96c1d6"/><path d="M220 154a10 10 0 0 0-2 11 15 15 0 0 0 2 4c6 8 18 3 18-6v-1a11 11 0 0 0-1-5v-1a11 11 0 0 0-17-2Z" style="fill:#6295d3"/><path d="m177 207-2-6a4 4 0 0 0-7 3l2 6c6 13 20 28 38 38l8-5c-20-9-34-26-39-36Z" style="fill:#346b99"/><circle cx="295.2" cy="152.4" r="7" style="fill:#6295d3"/><path d="M269 211c11 7 32 17 47 23l11 5 3 14v45h-14l-157-7v-37s55-3 94-41a12 12 0 0 1 16-2Z" style="fill:#346b99"/><path d="M317 232c-15-6-36-16-47-23a14 14 0 0 0-17 3c-39 37-94 39-94 39l-2 47h58a76 76 0 0 0 4-17 66 66 0 0 1 1-8 23 23 0 0 1 28-17l34 10a2 2 0 0 0 2-4l-18-14a9 9 0 0 1-1-14h1a8 8 0 0 1 9-1c15 9 42 17 55 20v-18c-5 1-13-3-13-3Z" style="fill:#eefaff"/><path d="M219 281a66 66 0 0 1 1-8 22 22 0 0 1 3-8 353 353 0 0 1-42-17 137 137 0 0 1-22 3l-2 47h58a76 76 0 0 0 4-17Z" style="fill:#96c1d6"/><path d="M124 225c21 18 80 57 192 73-29-1-58-2-71 0H145c-11-2-22-3-32 0H54l-41-2-3-21s53-7 97-49c5-5 12-6 17-1Z" style="fill:#6295d3"/><path d="M107 252a74 74 0 0 1 6-4 14 14 0 0 1 16 1c37 29 90 43 116 49h71a367 367 0 0 1-191-75 14 14 0 0 0-18 0c-44 42-97 49-97 49v26h44c4-11 9-17 14-20a13 13 0 0 1 16 1c8 8 19 14 29 19h32a196 196 0 0 1-38-24 14 14 0 0 1 0-22Z" style="fill:#eefaff"/><path d="M69 202a8 8 0 0 1-1-1 8 8 0 0 1-2 0 7 7 0 0 1-1-1 7 7 0 0 1-2-2 8 8 0 0 1-1-3 7 7 0 0 1 0-3 7 7 0 0 1 0-1 7 7 0 0 1 1-1 8 8 0 0 1 1-2 8 8 0 0 1 7-2 7 7 0 0 1 1 1 9 9 0 0 1 2 0 8 8 0 0 1 1 1 9 9 0 0 1 1 2 7 7 0 0 1 0 1 7 7 0 0 1 1 1 7 7 0 0 1 0 3 7 7 0 0 1-1 2 7 7 0 0 1 0 1 9 9 0 0 1-1 1 8 8 0 0 1-6 3Z" style="fill:#5c91c4"/><path d="M252 128a4 4 0 0 1-1 0 4 4 0 0 1-1 0 4 4 0 0 1-1-1 4 4 0 1 1 5 1 5 5 0 0 1-1 0 4 4 0 0 1-1 0Zm25 63a4 4 0 0 1-4-4 4 4 0 0 1 0-1 4 4 0 0 1 1-1 4 4 0 0 1 4-1 4 4 0 0 1 1 0 4 4 0 0 1 1 1 4 4 0 0 1 1 1 5 5 0 0 1 0 1 4 4 0 0 1-4 4Zm-110-4a4 4 0 0 1-4-3l-1-2a4 4 0 0 1 8-1l1 2a4 4 0 0 1-4 4Zm38-91-16 3a103 103 0 0 0-27 61 4 4 0 0 0 4 5 4 4 0 0 0 4-4v-4c5-37 29-56 35-61Zm-60 39a4 4 0 0 0 0 1 4 4 0 0 0 4-4c4-15 9-25 16-34h-10c-6 9-11 19-14 33a4 4 0 0 0 4 4Z" style="fill:#346b99"/></svg>